<?xml version="1.0" encoding="iso-8859-1"?>
<!-- Generator: Adobe Illustrator 19.0.0, SVG Export Plug-In . SVG Version: 6.00 Build 0)  -->
<svg xmlns="http://www.w3.org/2000/svg" xmlns:xlink="http://www.w3.org/1999/xlink" version="1.1" id="Layer_1" x="0px" y="0px" viewBox="0 0 512 512" style="enable-background:new 0 0 512 512;" xml:space="preserve">
<rect id="SVGCleanerId_0" x="174.791" y="98.031" transform="matrix(0.7071 -0.7071 0.7071 0.7071 -106.5728 257.4874)" style="fill:#A2D8F4;" width="165.475" height="318.716"/>
<g>
	
		<rect id="SVGCleanerId_0_1_" x="174.791" y="98.031" transform="matrix(0.7071 -0.7071 0.7071 0.7071 -106.5728 257.4874)" style="fill:#A2D8F4;" width="165.475" height="318.716"/>
</g>
<rect x="295.408" y="48.074" transform="matrix(0.7071 -0.7071 0.7071 0.7071 -56.6155 278.1811)" style="fill:#7FC7F0;" width="24.156" height="318.716"/>
<rect x="-5.54" y="62.372" transform="matrix(-0.7071 0.7071 -0.7071 -0.7071 186.282 76.9832)" style="fill:#37CC8F;" width="165.475" height="29.4"/>
<rect x="115.094" y="12.401" transform="matrix(-0.7071 0.7071 -0.7071 -0.7071 236.2594 -43.6593)" style="fill:#2AA86F;" width="24.156" height="29.4"/>
<rect x="349.221" y="365.528" transform="matrix(-0.7071 0.7071 -0.7071 -0.7071 920.1344 380.944)" style="fill:#37CC8F;" width="63.901" height="31.019"/>
<rect x="383.208" y="351.456" transform="matrix(-0.7071 0.7071 -0.7071 -0.7071 934.2115 346.9683)" style="fill:#2AA86F;" width="24.077" height="31.019"/>
<path d="M509.656,498.342L403.154,391.839l16.936-16.936c1.501-1.5,2.344-3.535,2.344-5.657s-0.843-4.157-2.344-5.657l-16.28-16.28  l30.257-30.257c3.124-3.124,3.124-8.19,0-11.313L208.698,80.371c-3.124-3.124-8.19-3.124-11.313,0l-52.85,52.85L98.611,87.296  l52.85-52.85c3.124-3.124,3.124-8.19,0-11.313l-20.79-20.79c-3.124-3.124-8.19-3.124-11.313,0L2.344,119.357  c-3.124,3.124-3.124,8.19,0,11.313l20.79,20.79c1.562,1.562,3.61,2.344,5.657,2.344s4.095-0.781,5.657-2.344l52.85-52.85  l45.925,45.925l-52.85,52.85c-3.124,3.124-3.124,8.19,0,11.313L241.45,369.777c3.124,3.124,8.19,3.124,11.313,0  c3.124-3.124,3.124-8.19,0-11.313l-5.313-5.313l22.53-22.53c3.124-3.124,3.124-8.19,0-11.313c-3.124-3.124-8.19-3.124-11.313,0  l-22.53,22.53l-28.739-28.74l32.485-32.484c3.124-3.124,3.124-8.19,0-11.313c-3.123-3.124-8.189-3.124-11.313,0l-32.485,32.484  l-28.739-28.738l22.53-22.531c3.124-3.124,3.124-8.19,0-11.313c-3.124-3.124-8.19-3.124-11.313,0l-22.53,22.531l-28.739-28.739  l32.484-32.484c3.124-3.124,3.124-8.19,0-11.313c-3.124-3.124-8.19-3.124-11.313,0L115.98,221.68l-18.637-18.637l52.844-52.844  c0.002-0.002,0.003-0.003,0.005-0.005c0.002-0.002,0.003-0.003,0.005-0.005l19.928-19.928l44.846,44.846  c1.562,1.562,3.61,2.344,5.657,2.344c2.047,0,4.095-0.781,5.657-2.344c3.124-3.124,3.124-8.19,0-11.313l-44.846-44.846  l21.603-21.603l214.054,214.054L395.493,333L244.596,182.101c-3.124-3.124-8.19-3.124-11.313,0c-3.124,3.124-3.124,8.19,0,11.313  L384.18,344.312l-19.933,19.933l-22.593,22.593c-0.001,0.001-0.002,0.003-0.003,0.004l-30.254,30.254l-23.893-23.894l32.484-32.484  c3.124-3.124,3.124-8.19,0-11.313c-3.124-3.124-8.19-3.124-11.313,0l-32.485,32.484l-4.798-4.798c-3.124-3.125-8.19-3.124-11.313,0  c-3.124,3.124-3.124,8.19,0,11.313l10.45,10.45c0.001,0.001,0.002,0.003,0.004,0.004c0.002,0.001,0.003,0.002,0.004,0.004  l35.203,35.203c1.5,1.501,3.535,2.344,5.657,2.344s4.157-0.843,5.657-2.344l30.257-30.257l16.28,16.28  c1.562,1.562,3.61,2.344,5.657,2.344s4.095-0.781,5.657-2.344l16.935-16.935l106.502,106.502c1.562,1.562,3.61,2.344,5.657,2.344  s4.095-0.781,5.657-2.344C512.781,506.532,512.781,501.466,509.656,498.342z M28.79,134.489l-9.475-9.475L125.014,19.314  l9.475,9.475L81.645,81.634c-0.002,0.002-0.003,0.003-0.005,0.005c-0.002,0.002-0.003,0.003-0.005,0.005L28.79,134.489z   M369.248,403.119l-10.623-10.623l16.936-16.936l16.936-16.935l10.623,10.622L369.248,403.119z"/>
<g>
</g>
<g>
</g>
<g>
</g>
<g>
</g>
<g>
</g>
<g>
</g>
<g>
</g>
<g>
</g>
<g>
</g>
<g>
</g>
<g>
</g>
<g>
</g>
<g>
</g>
<g>
</g>
<g>
</g>
</svg>
